<svg width="9788" height="10330" viewBox="0 0 9788 10330" fill="none" xmlns="http://www.w3.org/2000/svg">
<g opacity="0.04">
<path fill-rule="evenodd" clip-rule="evenodd" d="M-5172.41 8915.31C-6818.41 8915.31 -8153.45 7580.1 -8153.45 5934.22C-8153.45 4288.18 -6818.27 2953.12 -5172.41 2953.12C-4955.41 2953.12 -4743.75 2976.4 -4539.94 3020.42C-4304.56 3071.26 -4071.41 2943.34 -3987.81 2717.6C-3567.16 1581.31 -2473.57 770.813 -1191.16 770.813C91.2646 770.813 1184.85 1581.31 1605.51 2717.6C1689.1 2943.49 1922.26 3071.41 2157.63 3020.42C2361.44 2976.4 2573.1 2953.12 2790.1 2953.12C4436.11 2953.12 5771.14 4288.33 5771.14 5934.22C5771.14 7580.25 4435.96 8915.31 2790.1 8915.31C-351.178 8915.31 -2031.28 8915.31 -5172.55 8915.31H-5172.41Z" fill="url(#paint0_linear_563_13327)"/>
<path fill-rule="evenodd" clip-rule="evenodd" d="M-6953.87 3543.94C-6456.88 3172.79 -5840.13 2952.97 -5172.39 2952.97C-4955.39 2952.97 -4743.73 2976.24 -4539.92 3020.27C-4304.55 3071.11 -4071.24 2943.19 -3987.79 2717.44C-3567.14 1581.15 -2473.56 770.66 -1191.14 770.66C91.1333 770.66 1184.87 1581.15 1605.52 2717.44C1689.12 2943.34 1922.27 3071.25 2157.65 3020.27C2361.46 2976.24 2573.12 2952.97 2790.11 2952.97C3457.86 2952.97 4074.46 3172.79 4571.6 3543.94C3351.73 5434.99 1226.52 6687.19 -1191.14 6687.19C-3608.94 6687.19 -5734 5434.99 -6953.87 3543.94Z" fill="url(#paint1_linear_563_13327)"/>
<path fill-rule="evenodd" clip-rule="evenodd" d="M2070.66 7216.06C1117.59 7834.45 1.77344 8190.04 -1190.97 8190.04C-2383.72 8190.04 -3499.54 7834.45 -4452.6 7216.06C-4533.24 7163.74 -4563.47 7054.64 -4522.71 6963.04C-4481.8 6871.44 -4383.83 6828.9 -4295.64 6864.62C-3329.67 7255.78 -2283.52 7469.82 -1191.12 7469.82C-98.7217 7469.82 947.579 7255.78 1913.54 6864.62C2001.74 6828.9 2099.71 6871.44 2140.62 6963.04C2181.38 7054.5 2151.29 7163.74 2070.66 7216.06Z" fill="#020E4F"/>
<path fill-rule="evenodd" clip-rule="evenodd" d="M407.577 3108.6C784.061 3108.6 1089.1 3413.8 1089.1 3790.14C1089.1 4166.63 783.913 4471.68 407.577 4471.68C31.092 4471.68 -273.949 4166.48 -273.949 3790.14C-273.949 3413.65 31.2402 3108.6 407.577 3108.6Z" fill="#020E4F"/>
</g>
<defs>
<linearGradient id="paint0_linear_563_13327" x1="-1191.16" y1="770.813" x2="-1191.16" y2="8915.31" gradientUnits="userSpaceOnUse">
<stop stop-color="white"/>
<stop offset="1" stop-color="#999999"/>
</linearGradient>
<linearGradient id="paint1_linear_563_13327" x1="-1414.95" y1="7084.58" x2="-1264.8" y2="4267.72" gradientUnits="userSpaceOnUse">
<stop stop-color="#E6E6E6"/>
<stop offset="1" stop-color="#FEFEFE"/>
</linearGradient>
</defs>
</svg>
