<svg width="288" height="288" viewBox="0 0 288 288" fill="none" xmlns="http://www.w3.org/2000/svg">
<path fill-rule="evenodd" clip-rule="evenodd" d="M65.2367 0H222.018C257.897 0 287.254 29.356 287.254 65.2377V222.021C287.254 257.901 257.899 287.259 222.018 287.259H65.2367C29.3575 287.259 0 257.903 0 222.021V65.2377C0 29.3579 29.3556 0 65.2367 0Z" fill="url(#paint0_linear_514_1661)"/>
<path fill-rule="evenodd" clip-rule="evenodd" d="M93.5366 193.665C72.2229 193.665 54.9359 176.376 54.9359 155.064C54.9359 133.75 72.2248 116.462 93.5366 116.462C96.3464 116.462 99.0872 116.764 101.726 117.334C104.774 117.992 107.793 116.336 108.876 113.413C114.323 98.6991 128.483 88.2042 145.089 88.2042C161.694 88.2042 175.855 98.6991 181.302 113.413C182.384 116.338 185.403 117.994 188.451 117.334C191.09 116.764 193.831 116.462 196.641 116.462C217.955 116.462 235.242 133.752 235.242 155.064C235.242 176.378 217.953 193.665 196.641 193.665C155.965 193.665 134.21 193.665 93.5347 193.665H93.5366Z" fill="white"/>
<path fill-rule="evenodd" clip-rule="evenodd" d="M70.4686 124.113C76.904 119.307 84.8902 116.46 93.5366 116.46C96.3464 116.46 99.0871 116.762 101.726 117.332C104.774 117.99 107.795 116.334 108.876 113.411C114.322 98.6972 128.483 88.2023 145.089 88.2023C161.692 88.2023 175.855 98.6972 181.302 113.411C182.384 116.336 185.403 117.992 188.451 117.332C191.09 116.762 193.831 116.46 196.641 116.46C205.287 116.46 213.271 119.307 219.709 124.113C203.913 148.599 176.394 164.814 145.089 164.814C113.781 164.814 86.2644 148.599 70.4686 124.113Z" fill="url(#paint1_linear_514_1661)"/>
<path fill-rule="evenodd" clip-rule="evenodd" d="M187.325 171.662C174.984 179.669 160.535 184.274 145.091 184.274C129.646 184.274 115.198 179.669 102.857 171.662C101.813 170.984 101.421 169.572 101.949 168.386C102.479 167.2 103.747 166.649 104.889 167.111C117.397 172.176 130.944 174.948 145.089 174.948C159.234 174.948 172.782 172.176 185.29 167.111C186.432 166.649 187.701 167.2 188.231 168.386C188.758 169.57 188.369 170.984 187.325 171.662Z" fill="#FEB100"/>
<path fill-rule="evenodd" clip-rule="evenodd" d="M123.752 118.476C128.627 118.476 132.577 122.428 132.577 127.301C132.577 132.176 128.625 136.126 123.752 136.126C118.877 136.126 114.927 132.174 114.927 127.301C114.927 122.426 118.879 118.476 123.752 118.476Z" fill="#FEB100"/>
<path fill-rule="evenodd" clip-rule="evenodd" d="M165.79 118.476C170.665 118.476 174.615 122.428 174.615 127.301C174.615 132.176 170.663 136.126 165.79 136.126C160.915 136.126 156.965 132.174 156.965 127.301C156.965 122.426 160.917 118.476 165.79 118.476Z" fill="#FEB100"/>
<defs>
<linearGradient id="paint0_linear_514_1661" x1="143.627" y1="0" x2="143.627" y2="287.259" gradientUnits="userSpaceOnUse">
<stop stop-color="#001AAD"/>
<stop offset="1" stop-color="#005BFF"/>
</linearGradient>
<linearGradient id="paint1_linear_514_1661" x1="142.191" y1="169.96" x2="144.135" y2="133.485" gradientUnits="userSpaceOnUse">
<stop stop-color="#E6E6E6"/>
<stop offset="1" stop-color="#FEFEFE"/>
</linearGradient>
</defs>
</svg>
